<svg id="Layer_1" xmlns="http://www.w3.org/2000/svg" viewBox="0 0 43.6 299.2"><style>.st0{fill:#292D65;} .st1{fill:none;stroke:#292D65;stroke-miterlimit:10;stroke-dasharray:4;} .st2{fill:none;stroke:#292D65;stroke-width:2;stroke-miterlimit:10;}</style><g id="location_icon"><path class="st0" d="M21.8 230.9c-12 0-21.8 9.8-21.8 21.8 0 15.2 21.8 36.2 21.8 36.2s21.8-18.9 21.8-36.2c0-12-9.8-21.8-21.8-21.8zm.2 32.3c-6.5 0-11.7-5.2-11.7-11.7 0-6.5 5.2-11.7 11.7-11.7 6.5 0 11.7 5.2 11.7 11.7 0 6.5-5.2 11.7-11.7 11.7z"/><ellipse transform="rotate(-45 22.133 295.8)" class="st0" cx="22.1" cy="295.8" rx="3.1" ry="3.1"/><path class="st1" d="M22.2 220V39"/><ellipse transform="rotate(-45 22.136 15.094)" class="st2" cx="22.1" cy="15.1" rx="14" ry="14"/></g></svg>