<?xml version="1.0" standalone="no"?>
<!DOCTYPE svg PUBLIC "-//W3C//DTD SVG 20010904//EN"
 "http://www.w3.org/TR/2001/REC-SVG-20010904/DTD/svg10.dtd">
<svg version="1.0" xmlns="http://www.w3.org/2000/svg"
 width="340.000000pt" height="340.000000pt" viewBox="0 0 340.000000 340.000000"
 preserveAspectRatio="xMidYMid meet">
<metadata>
Created by potrace 1.11, written by Peter Selinger 2001-2013
</metadata>
<g transform="translate(0.000000,340.000000) scale(0.100000,-0.100000)"
fill="#000000" stroke="none">
<path d="M2258 2934 c-48 -7 -107 -18 -130 -25 -24 -6 -50 -12 -58 -14 -80
-17 -337 -129 -470 -205 -124 -71 -330 -222 -330 -241 0 -23 32 -19 72 9 113
77 313 183 418 222 19 7 49 18 65 26 17 7 76 25 130 40 84 23 122 27 235 28
126 1 139 -1 190 -25 59 -28 112 -75 138 -124 24 -45 24 -152 1 -237 -34 -124
-156 -343 -248 -448 -27 -31 -30 -32 -22 -10 13 37 6 121 -13 158 -58 113
-196 157 -392 125 -298 -47 -705 -279 -974 -553 -88 -89 -116 -122 -150 -170
-13 -19 -27 -37 -30 -40 -15 -12 -90 -142 -120 -205 -68 -147 -97 -342 -70
-463 25 -108 114 -222 210 -269 129 -63 312 -75 485 -32 141 35 331 123 485
225 256 170 561 460 760 723 14 18 34 45 46 59 85 108 229 345 290 478 72 158
85 191 109 285 27 100 29 117 28 234 0 90 -4 121 -23 170 -56 146 -164 240
-316 276 -70 16 -215 17 -316 3z m-205 -887 c98 -41 112 -140 40 -282 -101
-200 -516 -524 -733 -574 -205 -47 -328 71 -260 251 58 155 250 357 461 486
194 118 383 164 492 119z"/>
</g>
</svg>
