<svg id="Layer_4" data-name="Layer 4" xmlns="http://www.w3.org/2000/svg" viewBox="0 0 40 38.67"><defs><style>.cls-1{fill:#848484;}</style></defs><title>icon-invite</title><path class="cls-1" d="M36.11 22.77a18.33 18.33 0 1 0-30.16 9.06l.59.5.12.09c.32.26.65.51 1 .76l.32.23q.53.37 1.1.7l.24.14c.41.23.83.45 1.25.65h.09a18.17 18.17 0 0 0 4.43 1.4h.12c.48.08 1 .15 1.46.19h.22c.49 0 1 .07 1.5.07a18.23 18.23 0 0 0 6.34-1.13 8.66 8.66 0 1 0 11.38-12.66zM1.33 18.33a17 17 0 1 1 33.56 3.78q-.38-.17-.77-.3h-.07a8.59 8.59 0 0 0-.84-.23c-.28-.06-.56-.11-.85-.14h-.11a9 9 0 0 0-.91 0 8.68 8.68 0 0 0-8.32 6.28 1.47 1.47 0 0 1-.46-1.08v-2c.13-.16.27-.35.41-.54a13.56 13.56 0 0 0 1.74-3.42 2.42 2.42 0 0 0 1.39-2.19v-2.46a2.43 2.43 0 0 0-.59-1.58v-3.11a5.38 5.38 0 0 0-1.26-3.91c-1.23-1.4-3.22-2.11-5.91-2.11s-4.68.71-5.91 2.11a5.38 5.38 0 0 0-1.26 3.91v3.11a2.43 2.43 0 0 0-.59 1.58v2.36a2.43 2.43 0 0 0 .89 1.88 12.53 12.53 0 0 0 2.06 4.26v1.93a1.49 1.49 0 0 1-.77 1.31l-5.27 2.88a4.87 4.87 0 0 0-.5.32 17 17 0 0 1-5.65-12.64zm15.74 16.95h-.22c-.42 0-.84-.09-1.26-.16h-.05a17 17 0 0 1-2.6-.65h-.07a17.08 17.08 0 0 1-2.4-1l-.13-.07c-.34-.18-.68-.38-1-.59l-.28-.18c-.3-.2-.6-.41-.9-.62l-.09-.07h.06l5.27-2.88a2.82 2.82 0 0 0 1.47-2.48v-2.55l-.16-.19a11.08 11.08 0 0 1-2-4.14l-.06-.26-.23-.15a1.1 1.1 0 0 1-.51-.93v-2.33a1.09 1.09 0 0 1 .37-.82l.22-.2v-3.8a4 4 0 0 1 .93-2.91c1-1.1 2.62-1.66 4.91-1.66s3.93.55 4.9 1.64a4.08 4.08 0 0 1 .94 2.92V15l.22.2a1.09 1.09 0 0 1 .37.82v2.36a1.1 1.1 0 0 1-.79 1l-.33.1-.11.33a12.3 12.3 0 0 1-1.66 3.35 7.83 7.83 0 0 1-.49.63l-.17.19v2.47a2.8 2.8 0 0 0 1.51 2.5 8.78 8.78 0 0 0-.06 1v1.15s0 .23.06.34 0 .15 0 .23v.06c0 .1 0 .19.07.29v.2l.05.17.07.23v.14c0 .13.1.27.15.4l.13.3.1.22.07.14v.09l.18.32.05.1a16.83 16.83 0 0 1-5.54.94c-.17.06-.57.04-.99.01zm14.26 2.05a7.32 7.32 0 0 1-5.93-3l-.16-.23-.11-.16-.08-.14-.09-.15-.14-.24-.09-.19v-.05l-.15-.31-.06-.17c-.05-.13-.1-.27-.15-.4l-.06-.19v-.06c0-.13-.07-.27-.1-.4v-.25q0-.22-.07-.45v-.05-.16-.68-.62s0-.4.08-.61v-.29a7.34 7.34 0 0 1 7.17-5.81 7.19 7.19 0 0 1 .89.06h.2a7.25 7.25 0 0 1 .72.15h.15a7.33 7.33 0 0 1-2.01 14.4z"/><path class="cls-1" d="M35.34 29.33H32v-3.3a.67.67 0 0 0-1.33 0v3.33h-3.33a.67.67 0 1 0 0 1.33h3.33v3.34a.67.67 0 1 0 1.33 0V30.7h3.33a.685.685 0 1 0 .01-1.37z"/></svg>