<svg id="Layer_6" data-name="Layer 6" xmlns="http://www.w3.org/2000/svg" viewBox="0 0 46.22 46.28"><defs><style>.cls-1{fill:#c6c6c6;}</style></defs><title>icon-checkbox</title><path class="cls-1" d="M23.11 0a23.14 23.14 0 1 0 23.11 23.14A23.19 23.19 0 0 0 23.11 0zm0 44.83a21.69 21.69 0 1 1 21.65-21.7 21.74 21.74 0 0 1-21.65 21.7z"/><path class="cls-1" d="M32.57 16.05a1.79 1.79 0 0 0-2.46 0l-9.1 9-4.91-4.84a1.79 1.79 0 0 0-2.46 0l-1.59 1.59a1.79 1.79 0 0 0 0 2.46L19.78 32a1.58 1.58 0 0 0 1.23.51h.07a1.49 1.49 0 0 0 1.23-.51l11.84-11.86a1.79 1.79 0 0 0 0-2.46z"/></svg>