<svg xmlns="http://www.w3.org/2000/svg" xmlns:xlink="http://www.w3.org/1999/xlink">
    <symbol id="svg-resend-invitation" viewBox="0 0 31.29 25.55">
    <defs>
        <style>.cls-1{fill:#c1c1c1;}</style>
    </defs>
    <title>icon-resend-invitation</title>
    <path class="cls-1"
          d="M786.62,525a0.52,0.52,0,0,0-.62.41,5.72,5.72,0,0,1-5.62,4.8,6,6,0,0,1-5.71-4.17h2.45v-1H773v4.17h1v-2a7.06,7.06,0,0,0,6.39,4.09,6.74,6.74,0,0,0,6.64-5.63A0.52,0.52,0,0,0,786.62,525Z"
          transform="translate(-756.27 -505.71)"/>
    <path class="cls-1"
          d="M786.52,518.75V521a6.84,6.84,0,0,0-6.13-3.81,7.16,7.16,0,0,0-6.89,5.07,0.52,0.52,0,1,0,1,.29,6.19,6.19,0,0,1,5.89-4.32,5.83,5.83,0,0,1,5.39,3.65h-2.39v1h4.17v-4.17h-1Z"
          transform="translate(-756.27 -505.71)"/>
    <path class="cls-1"
          d="M769.5,518.15a2.91,2.91,0,0,0,3.78,0l12.19-10.76v9.27a0.52,0.52,0,0,0,1,0V506.23h0a0.52,0.52,0,0,0,0-.17h0l0,0a0.51,0.51,0,0,0-.08-0.11l0,0-0.11-.07-0.05,0a0.51,0.51,0,0,0-.18,0H756.8a0.51,0.51,0,0,0-.18,0l-0.05,0-0.11.07,0,0a0.5,0.5,0,0,0-.08.12l0,0h0a0.52,0.52,0,0,0,0,.17h0v20.34h0a0.52,0.52,0,0,0,0,.17v0l0,0a0.51,0.51,0,0,0,.07.11l0,0,0.1,0.07,0.05,0a0.52,0.52,0,0,0,.18,0h14.08a0.52,0.52,0,0,0,0-1H758.3c2.37-1.88,7.72-6.14,10.47-8.55Zm15.12-11.4-12,10.62a1.84,1.84,0,0,1-2.4,0l-1-.91h0l0,0-10.94-9.66h26.45Zm-27.3,18.74V507.39L768,516.8C765.08,519.33,759.45,523.81,757.32,525.49Z"
          transform="translate(-756.27 -505.71)"/>
    </symbol>
</svg>
