<svg id="Layer_6" data-name="Layer 6" xmlns="http://www.w3.org/2000/svg" viewBox="0 0 30.84 30.75"><defs><style>.cls-1{fill:#c1c1c1;}.cls-2{fill:#3db7e4;}</style></defs><title>icon-confirmation-done</title><path class="cls-1" d="M871.5,435.8v-5a0.5,0.5,0,1,0-1,0v5a2,2,0,0,0-1.43,1.48h-3.52a0.5,0.5,0,1,0,0,1h3.56A2,2,0,1,0,871.5,435.8Zm-0.5,2.9a1,1,0,1,1,1-1A1,1,0,0,1,871,438.71Z" transform="translate(-856.15 -422.92)"/><path class="cls-1" d="M871,427.81a0.49,0.49,0,0,0,.5-0.5v-0.5a0.5,0.5,0,0,0-1,0v0.5A0.5,0.5,0,0,0,871,427.81Z" transform="translate(-856.15 -422.92)"/><path class="cls-1" d="M881.9,438.21a0.5,0.5,0,1,0,0-1h-0.5a0.5,0.5,0,0,0,0,1h0.5Z" transform="translate(-856.15 -422.92)"/><path class="cls-1" d="M860.11,437.22a0.5,0.5,0,0,0,0,1h0.5a0.5,0.5,0,1,0,0-1h-0.5Z" transform="translate(-856.15 -422.92)"/><path class="cls-1" d="M878.71,430.71l0.35-.35a0.5,0.5,0,0,0-.7-0.7L878,430A0.5,0.5,0,1,0,878.71,430.71Z" transform="translate(-856.15 -422.92)"/><path class="cls-1" d="M863.3,444.72l-0.35.35a0.5,0.5,0,1,0,.7.7l0.35-.35A0.5,0.5,0,0,0,863.3,444.72Z" transform="translate(-856.15 -422.92)"/><path class="cls-1" d="M864,430l-0.35-.35a0.5,0.5,0,0,0-.7.7l0.35,0.35A0.5,0.5,0,0,0,864,430Z" transform="translate(-856.15 -422.92)"/><path class="cls-1" d="M871,422.92a14.86,14.86,0,0,0-3.58,29.28h0.12a0.5,0.5,0,0,0,.12-1,13.87,13.87,0,1,1,16.28-8.46,0.5,0.5,0,0,0,.92.36A14.86,14.86,0,0,0,871,422.92Z" transform="translate(-856.15 -422.92)"/><path class="cls-2" d="M878,453.67l-4.75-4.75a1,1,0,0,1,1.41-1.41l3.33,3.33,7.33-7.33a1,1,0,0,1,1.41,1.41Z" transform="translate(-856.15 -422.92)"/></svg>