<svg id="Layer_6" data-name="Layer 6" xmlns="http://www.w3.org/2000/svg" viewBox="0 0 29.71 29.29"><defs><style>.cls-1{fill:#c1c1c1;}</style></defs><title>icon-confirmation-waiting</title><path class="cls-1" d="M881.9,522.34v-1.17h0.5a0.5,0.5,0,0,0,0-1h-8.91a0.5,0.5,0,0,0,0,1H874v1.17a5.07,5.07,0,0,0,2.39,4.28A5.06,5.06,0,0,0,874,530.9v1.17h-0.5a0.5,0.5,0,0,0,0,1h8.91a0.5,0.5,0,0,0,0-1h-0.5V530.9a5.07,5.07,0,0,0-2.39-4.28A5.06,5.06,0,0,0,881.9,522.34Zm-1,8.56v1.17H875V530.9a4.13,4.13,0,0,1,2.57-3.78h0.79A4.13,4.13,0,0,1,880.91,530.9Zm-2.57-4.77h-0.79a4.13,4.13,0,0,1-2.57-3.78v-1.17h5.94v1.17A4.13,4.13,0,0,1,878.34,526.13Z" transform="translate(-856.15 -503.84)"/><path class="cls-1" d="M871.5,516.73v-5a0.5,0.5,0,0,0-1,0v5a2,2,0,0,0-1.43,1.48h-3.52a0.5,0.5,0,0,0,0,1h3.56A2,2,0,1,0,871.5,516.73Zm-0.5,2.9a1,1,0,1,1,1-1A1,1,0,0,1,871,519.63Z" transform="translate(-856.15 -503.84)"/><path class="cls-1" d="M871,508.73a0.49,0.49,0,0,0,.5-0.5v-0.5a0.5,0.5,0,0,0-1,0v0.5A0.5,0.5,0,0,0,871,508.73Z" transform="translate(-856.15 -503.84)"/><path class="cls-1" d="M881.9,519.13a0.5,0.5,0,1,0,0-1h-0.5a0.5,0.5,0,1,0,0,1h0.5Z" transform="translate(-856.15 -503.84)"/><path class="cls-1" d="M860.11,518.14a0.5,0.5,0,1,0,0,1h0.5a0.5,0.5,0,1,0,0-1h-0.5Z" transform="translate(-856.15 -503.84)"/><path class="cls-1" d="M878.71,511.63l0.35-.35a0.5,0.5,0,0,0-.7-0.7l-0.35.35A0.5,0.5,0,1,0,878.71,511.63Z" transform="translate(-856.15 -503.84)"/><path class="cls-1" d="M863.3,525.64L863,526a0.5,0.5,0,1,0,.7.7l0.35-.35A0.5,0.5,0,0,0,863.3,525.64Z" transform="translate(-856.15 -503.84)"/><path class="cls-1" d="M864,510.93l-0.35-.35a0.5,0.5,0,0,0-.7.7l0.35,0.35A0.5,0.5,0,0,0,864,510.93Z" transform="translate(-856.15 -503.84)"/><path class="cls-1" d="M871,503.84a14.86,14.86,0,0,0-3.58,29.28h0.12a0.5,0.5,0,0,0,.12-1,13.87,13.87,0,1,1,16.28-8.46,0.5,0.5,0,0,0,.92.36A14.86,14.86,0,0,0,871,503.84Z" transform="translate(-856.15 -503.84)"/></svg>