<svg xmlns="http://www.w3.org/2000/svg" xmlns:xlink="http://www.w3.org/1999/xlink">
    <symbol id="svg-user" viewBox="0 0 45.67 45.67">
    <defs>
        <style>.cls-1{fill:#d8d8d8;}</style>
    </defs>
    <title>icon-user</title>
    <path class="cls-1"
          d="M45.67 22.83A22.83 22.83 0 1 0 7.41 39.65l.74.62.15.11c.39.33.8.64 1.22.94l.41.29q.67.46 1.36.87l.31.18c.51.29 1 .56 1.56.81l.12.05a22.63 22.63 0 0 0 5.52 1.75h.15c.6.1 1.21.19 1.82.24H21c.61.05 1.23.08 1.86.08s1.24 0 1.84-.08h.23q.92-.08 1.81-.24h.16a22.63 22.63 0 0 0 5.44-1.71l.19-.09q.77-.36 1.5-.78l.36-.21c.45-.26.89-.54 1.31-.83l.46-.32c.36-.26.72-.53 1.07-.82l.24-.18.76-.63a22.77 22.77 0 0 0 7.44-16.87zm-44 0a21.17 21.17 0 1 1 35.17 15.83 6.22 6.22 0 0 0-.74-.45l-7-3.51a1.84 1.84 0 0 1-1-1.65v-2.46c.16-.2.33-.43.51-.68a16.92 16.92 0 0 0 2.17-4.25 3 3 0 0 0 1.73-2.73v-2.94a3 3 0 0 0-.74-2v-3.85a6.7 6.7 0 0 0-1.56-4.87c-1.53-1.75-4-2.63-7.36-2.63s-5.83.88-7.36 2.63a6.7 6.7 0 0 0-1.56 4.87v3.88a3 3 0 0 0-.74 2v2.94a3 3 0 0 0 1.11 2.34 15.6 15.6 0 0 0 2.57 5.3V33a1.85 1.85 0 0 1-1 1.63L9.3 38.21a6 6 0 0 0-.62.4 21.12 21.12 0 0 1-7.02-15.78zm33.59 17.13q-.44.32-.89.61l-.42.27c-.39.24-.79.47-1.2.69l-.27.14a21.16 21.16 0 0 1-2.9 1.23h-.11q-.78.26-1.58.46c-.54.13-1.08.24-1.63.33-.52.08-1 .14-1.56.19h-.28c-.52 0-1 .06-1.55.06s-1.05 0-1.57-.06h-.27c-.53 0-1.05-.11-1.57-.19h-.07a21.09 21.09 0 0 1-3.23-.81h-.1q-.78-.27-1.55-.59c-.48-.21-1-.44-1.42-.68l-.18-.09c-.42-.23-.84-.47-1.25-.73l-.36-.23c-.38-.25-.75-.5-1.11-.77l-.11-.09h.08l6.57-3.58a3.51 3.51 0 0 0 1.83-3.08v-3l-.19-.23a13.86 13.86 0 0 1-2.49-5.16l-.08-.33-.28-.18a1.38 1.38 0 0 1-.64-1.16v-2.94a1.36 1.36 0 0 1 .46-1l.27-.25v-4.73a5 5 0 0 1 1.16-3.62c1.2-1.37 3.26-2.06 6.11-2.06s4.9.69 6.1 2a5.08 5.08 0 0 1 1.17 3.64v4.73l.27.25a1.36 1.36 0 0 1 .46 1v2.94a1.39 1.39 0 0 1-1 1.31l-.41.13-.13.41a15.36 15.36 0 0 1-2.07 4.18c-.22.31-.43.58-.61.79l-.21.23v3.07a3.49 3.49 0 0 0 1.94 3.14l7 3.51.13.07z"/>
    </symbol>
</svg>
