<svg id="Layer_4" data-name="Layer 4" xmlns="http://www.w3.org/2000/svg" viewBox="0 0 38.28 36.81"><defs><style>.cls-1{fill:#848484;}</style></defs><title>icon-log</title><path class="cls-1" d="M38.04 28.54c-2.35-3.59-5.49-5.62-8.87-5.75a4.71 4.71 0 0 0-.54 0 4.66 4.66 0 0 0-1 .1c-3.08.4-5.91 2.38-8.08 5.68l-.31.48.24.37c2.43 3.72 5.71 5.76 9.22 5.76s6.79-2 9.22-5.76l.31-.48zm-6.13-1.16a3.29 3.29 0 1 1-4-3.21 7.59 7.59 0 0 1 .9-.06 3.28 3.28 0 0 1 3.1 3.26zm-3.16 6.43c-2.94 0-5.71-1.7-7.86-4.79a12.52 12.52 0 0 1 3.53-3.55 4.62 4.62 0 1 0 8.24-.33 12 12 0 0 1 4 3.77c-2.14 3.16-4.94 4.89-7.91 4.89z"/><path class="cls-1" d="M18.41 35.48c-.42 0-.85 0-1.27-.05h-.22c-.42 0-.85-.09-1.27-.16h-.05a17.1 17.1 0 0 1-2.61-.65h-.07a17.15 17.15 0 0 1-2.41-1l-.13-.07c-.34-.18-.68-.38-1-.59l-.28-.18c-.31-.2-.61-.41-.9-.63l-.09-.07h.06l5.29-2.89a2.83 2.83 0 0 0 1.48-2.49v-2.41l-.16-.19a11.12 11.12 0 0 1-2-4.16l-.06-.27-.23-.15a1.11 1.11 0 0 1-.51-.93v-2.37a1.1 1.1 0 0 1 .37-.82l.22-.2v-3.82a4 4 0 0 1 .93-2.92c1-1.1 2.63-1.66 4.93-1.66s3.95.56 4.92 1.65a4.1 4.1 0 0 1 .95 2.93v3.82l.22.2a1.09 1.09 0 0 1 .37.82v2.26a1.1 1.1 0 0 1-.79 1.05.67.67 0 0 0 .39 1.28 2.44 2.44 0 0 0 1.67-2.33v-2.37a2.44 2.44 0 0 0-.59-1.59V11.4a5.4 5.4 0 0 0-1.26-3.92c-1.23-1.41-3.23-2.12-5.93-2.12s-4.7.71-5.93 2.12a5.4 5.4 0 0 0-1.26 3.92v3.08a2.44 2.44 0 0 0-.59 1.59v2.41a2.44 2.44 0 0 0 .9 1.89 12.58 12.58 0 0 0 2.07 4.28v1.94a1.49 1.49 0 0 1-.78 1.31L7.5 30.79a4.89 4.89 0 0 0-.5.32 17.06 17.06 0 1 1 28.46-12.69.67.67 0 1 0 1.34 0A18.41 18.41 0 1 0 5.96 31.98l.6.5.12.09c.32.27.65.52 1 .76l.32.23q.54.37 1.1.7l.24.14c.41.23.83.45 1.26.66h.09a18.24 18.24 0 0 0 4.47 1.42h.12c.48.08 1 .15 1.47.2h.18c.5 0 1 .07 1.5.07a.67.67 0 1 0-.02-1.27z"/></svg>