<svg id="Layer_4" data-name="Layer 4" xmlns="http://www.w3.org/2000/svg" viewBox="0 0 37.33 38.18"><defs><style>.cls-1{fill:#848484;}</style></defs><title>icon-edit</title><path class="cls-1" d="M36.75 23.15l-1.9-1.9a2 2 0 0 0-2.81 0L21.78 31.51l-1.42 5.18-.35.35a.67.67 0 0 0 0 .94.66.66 0 0 0 .94 0l.35-.35 5.19-1.41 10.26-10.26a2 2 0 0 0 0-2.81zm-13.44 8.71l6.83-6.83 2.83 2.83-6.83 6.83zm-.6 1.28l2.15 2.15-3 .81zm13.09-8.12l-1.89 1.89-2.83-2.83 1.89-1.89a.66.66 0 0 1 .93 0l1.9 1.9a.66.66 0 0 1 .01.93z"/><path class="cls-1" d="M18.33 6.69c2.28 0 3.93.55 4.9 1.64a4.08 4.08 0 0 1 .94 2.92v3.8l.22.2a1.09 1.09 0 0 1 .37.82v2.36a1.1 1.1 0 0 1-.79 1 .67.67 0 0 0 .39 1.27 2.43 2.43 0 0 0 1.73-2.32v-2.36a2.43 2.43 0 0 0-.59-1.58v-3.11a5.38 5.38 0 0 0-1.26-3.91c-1.23-1.4-3.22-2.11-5.91-2.11s-4.68.71-5.91 2.11a5.38 5.38 0 0 0-1.26 3.91v3.11a2.43 2.43 0 0 0-.59 1.58v2.36a2.43 2.43 0 0 0 .89 1.88 12.53 12.53 0 0 0 2.06 4.26v1.93a1.49 1.49 0 0 1-.77 1.31l-5.27 2.93a4.87 4.87 0 0 0-.51.33 17 17 0 1 1 28.36-12.65.67.67 0 1 0 1.33 0A18.33 18.33 0 1 0 5.94 31.88l.2.17a18.19 18.19 0 0 0 5.31 3.3l.33.14.71.25.77.24.55.15c.47.12.94.23 1.42.31h.11a.67.67 0 0 0 .11-1.32c-.44-.07-.86-.17-1.29-.28l-.44-.12-.84-.26q-.5-.17-1-.37l-.4-.17-.82-.39h-.07a17.12 17.12 0 0 1-2.54-1.6h.07l5.27-2.88a2.82 2.82 0 0 0 1.47-2.48v-2.4l-.16-.19a11.08 11.08 0 0 1-2-4.14l-.06-.26-.23-.15a1.1 1.1 0 0 1-.51-.93v-2.36a1.09 1.09 0 0 1 .37-.82l.22-.2v-3.8a4 4 0 0 1 .93-2.91c.97-1.18 2.62-1.72 4.91-1.72z"/></svg>