<svg id="Layer_6" data-name="Layer 6" xmlns="http://www.w3.org/2000/svg" viewBox="0 0 32 31.05"><defs><style>.cls-1{fill:#c1c1c1;}</style></defs><title>icon-resend-qrcode</title><path class="cls-1" d="M786.54,446.81a0.52,0.52,0,0,0-.62.41,5.79,5.79,0,0,1-5.62,4.88A6.6,6.6,0,0,1,774.6,448h2.08v-1h-4v4h1v-2a7.1,7.1,0,0,0,6.51,4.09,6.8,6.8,0,0,0,6.7-5.63A0.48,0.48,0,0,0,786.54,446.81Z" transform="translate(-755.68 -422)"/><path class="cls-1" d="M786.68,441v1.78a6.84,6.84,0,0,0-6.25-3.81,7.24,7.24,0,0,0-6.95,5.07,0.5,0.5,0,1,0,1,.29,6,6,0,0,1,5.88-4.15c2.38,0,4.46.82,5.38,3.82h-2v1h4v-4h-1Z" transform="translate(-755.68 -422)"/><path class="cls-1" d="M768.43,451H756.68V423h28v12.33a0.5,0.5,0,1,0,1,0V422h-30v30h12.75A0.5,0.5,0,1,0,768.43,451Z" transform="translate(-755.68 -422)"/><path class="cls-1" d="M766.68,425h-8v8h8v-8Zm-1,7h-6v-6h6v6Z" transform="translate(-755.68 -422)"/><path class="cls-1" d="M758.68,449h8v-8h-8v8Zm1-7h6v6h-6v-6Z" transform="translate(-755.68 -422)"/><path class="cls-1" d="M782.68,433v-8h-8v8h8Zm-7-7h6v6h-6v-6Z" transform="translate(-755.68 -422)"/><path class="cls-1" d="M772.68,439v-4h-4v4h4Zm-3-3h2v2h-2v-2Z" transform="translate(-755.68 -422)"/></svg>